<?xml version="1.0" encoding="utf-8"?>
<svg xmlns="http://www.w3.org/2000/svg" viewBox="-1.967 11.8 500 500" xmlns:bx="https://boxy-svg.com">
  <path d="M 248.034 261.801 m -249.999 0 a 249.999 249.999 0 1 0 499.998 0 a 249.999 249.999 0 1 0 -499.998 0 Z M 248.034 261.801 m -202.379 0 a 202.379 202.379 0 0 1 404.758 0 a 202.379 202.379 0 0 1 -404.758 0 Z" bx:shape="ring 248.034 261.801 202.379 202.379 249.999 249.999 1@deb0e833" style="fill: currentcolor;"/>
  <path d="M 248.032 261.798 m -58.25 0 a 58.25 58.25 0 1 0 116.5 0 a 58.25 58.25 0 1 0 -116.5 0 Z M 248.032 261.798 m -33.284 0 a 33.284 33.284 0 0 1 66.568 0 a 33.284 33.284 0 0 1 -66.568 0 Z" bx:shape="ring 248.032 261.798 33.284 33.284 58.25 58.25 1@3be5a7a5" style="fill: currentcolor;"/>
  <path d="M 158.228 106.254 C 183.427 91.703 209.951 84.044 236.128 82.305 L 236.128 186.828 C 201.482 192.468 172.2 222.06 172.2 261.798 C 172.2 288.891 186.654 313.923 210.116 327.471 C 238 343.569 269.728 339.69 292.578 323.179 L 366.341 396.942 C 357.619 404.575 348.091 411.422 337.836 417.342 C 218.098 486.474 68.425 400.061 68.425 261.798 C 68.425 197.63 102.657 138.338 158.228 106.254 Z M 323.865 261.798 C 323.865 245.528 318.653 230.002 309.408 217.256 L 383.285 143.381 C 410.544 174.261 427.64 215.07 427.64 261.798 C 427.64 305.975 411.416 347.838 383.174 380.103 L 309.473 306.402 C 318.43 294.156 323.865 278.916 323.865 261.798 Z M 285.949 196.124 C 277.512 191.255 268.725 188.213 259.936 186.796 L 259.936 82.342 C 299.43 85.074 336.913 100.986 366.383 126.611 L 292.571 200.422 C 290.453 198.886 288.243 197.45 285.949 196.124 Z" style="stroke-linejoin: round; stroke-width: 4px; fill: currentcolor; stroke: currentcolor;"/>
</svg>