<?xml version="1.0" encoding="utf-8"?>
<svg viewBox="-1.967 11.8 500 500" version="1.1" id="svg3" xmlns="http://www.w3.org/2000/svg" xmlns:bx="https://boxy-svg.com">
  <defs id="defs3">
    <bx:export>
      <bx:file format="png"/>
    </bx:export>
  </defs>
  <path d="m 248.034,261.801 m -206.103402,0 a 206.1034,206.1034 0 1 0 412.206802,0 206.1034,206.1034 0 1 0 -412.206802,0 z m 206.103402,0 m -166.844666,0 a 166.84467,166.84467 0 0 1 333.689336,0 166.84467,166.84467 0 0 1 -333.689336,0 z" bx:shape="ring 248.034 261.801 202.379 202.379 249.999 249.999 1@deb0e833" style="fill:#4caf50;fill-opacity:1;stroke-width:0.824417" id="path1"/>
  <path d="m 248.03235,261.79853 m -48.02228,0 a 48.022287,48.022287 0 1 0 96.04457,0 48.022287,48.022287 0 1 0 -96.04457,0 z m 48.02228,0 m -27.43989,0 a 27.439893,27.439893 0 0 1 54.87978,0 27.439893,27.439893 0 0 1 -54.87978,0 z" bx:shape="ring 248.032 261.798 33.284 33.284 58.25 58.25 1@3be5a7a5" style="fill:#4caf50;fill-opacity:1;stroke-width:0.824417" id="path2"/>
  <path d="m 173.99642,133.56543 c 20.77448,-11.9961 42.64131,-18.3103 64.22208,-19.74396 v 86.17052 c -28.56276,4.64971 -52.70333,29.04586 -52.70333,61.80654 0,22.33593 11.91612,42.97272 31.25859,54.14193 22.98804,13.27147 49.14513,10.07354 67.98306,-3.5384 l 60.81147,60.81146 c -7.19056,6.29278 -15.04561,11.93756 -23.5,16.81812 -98.71404,56.99358 -222.106992,-14.24676 -222.106992,-128.23311 0,-52.90119 28.221442,-101.78251 74.035122,-128.2331 z m 136.55394,128.2331 c 0,-13.41327 -4.29687,-26.21316 -11.9186,-36.72118 l 60.90545,-60.9038 c 22.47278,25.458 36.56702,59.10162 36.56702,97.62498 0,36.42026 -13.37534,70.93282 -36.65853,97.53264 l -60.76036,-60.76035 c 7.38431,-10.09581 11.86502,-22.65993 11.86502,-36.77229 z m -31.2586,-54.14276 c -6.95559,-4.01408 -14.19975,-6.52196 -21.44555,-7.69016 v -86.11364 c 32.55953,2.2523 63.46114,15.37043 87.75671,36.49611 l -60.85187,60.85104 c -1.74611,-1.26631 -3.56807,-2.45017 -5.45929,-3.54335 z" style="fill:#1976d2;fill-opacity:1;fill-rule:nonzero;stroke-width:3.29767px;stroke-linejoin:round;stroke:#1976d2;stroke-opacity:1" id="path3"/>
</svg>